<svg width="148" height="30" viewBox="0 0 148 30" fill="none" xmlns="http://www.w3.org/2000/svg">
<path d="M61.3656 29.619H56.5687V28.0949C56.0911 28.6664 55.4266 29.1321 54.5752 29.492C53.7446 29.8307 52.8516 30 51.8964 30C50.5882 30 49.3941 29.5661 48.3143 28.6982C47.2552 27.8091 46.7257 26.5602 46.7257 24.9515C46.7257 23.258 47.2449 22.0197 48.2831 21.2365C49.3214 20.4321 50.5259 20.0299 51.8964 20.0299C54.0768 20.0299 55.6343 20.6226 56.5687 21.808V19.9664C56.5687 19.289 56.2988 18.7492 55.7589 18.3471C55.2189 17.9449 54.4714 17.7438 53.5161 17.7438C51.9172 17.7438 50.4947 18.2835 49.2488 19.3631L47.5356 16.2832C49.363 14.6956 51.6368 13.9018 54.3572 13.9018C55.3124 13.9018 56.1846 14.0076 56.9737 14.2193C57.7835 14.4098 58.5207 14.7273 59.1852 15.1719C59.8705 15.6164 60.4 16.2514 60.7738 17.077C61.1684 17.9025 61.3656 18.8868 61.3656 20.0299V29.619ZM53.8899 26.7931C55.1774 26.7931 56.0703 26.4226 56.5687 25.6818V24.3164C56.0496 23.5967 55.1566 23.2369 53.8899 23.2369C53.2047 23.2369 52.6336 23.3956 52.1767 23.7131C51.7199 24.0095 51.4915 24.4434 51.4915 25.015C51.4915 25.5865 51.7199 26.031 52.1767 26.3486C52.6336 26.6449 53.2047 26.7931 53.8899 26.7931Z" fill="white"/>
<path d="M70.2674 29.619H65.4705V14.2828H70.2674V16.1562C70.7865 15.5211 71.4822 14.9813 72.3543 14.5368C73.2265 14.0923 74.0987 13.87 74.9708 13.87V18.5693C74.597 18.4846 74.2025 18.4423 73.7872 18.4423C73.1227 18.4423 72.4374 18.5799 71.7314 18.8551C71.0461 19.1091 70.5581 19.4372 70.2674 19.8394V29.619Z" fill="white"/>
<path d="M83.4744 30C81.9378 30 80.7645 29.619 79.9546 28.857C79.1655 28.0949 78.771 26.973 78.771 25.4912V18.5376H76.2791V14.2828H78.771V10.0915H83.5367V14.2828H86.5893V18.5376H83.5367V24.1259C83.5367 24.5916 83.651 24.9726 83.8794 25.269C84.1286 25.5442 84.4608 25.6818 84.8761 25.6818C85.4783 25.6818 85.8833 25.5548 86.0909 25.3007L87.0254 28.984C86.3194 29.6613 85.1357 30 83.4744 30Z" fill="white"/>
<path d="M93.9514 12.0919C93.4322 12.6423 92.7885 12.9175 92.0202 12.9175C91.2518 12.9175 90.5977 12.6423 90.0578 12.0919C89.5386 11.5415 89.2791 10.8748 89.2791 10.0915C89.2791 9.30832 89.5386 8.65211 90.0578 8.12291C90.5977 7.57255 91.2518 7.29736 92.0202 7.29736C92.7885 7.29736 93.4322 7.57255 93.9514 8.12291C94.4913 8.65211 94.7612 9.30832 94.7612 10.0915C94.7612 10.8748 94.4913 11.5415 93.9514 12.0919ZM94.4186 29.619H89.6217V14.2828H94.4186V29.619Z" fill="white"/>
<path d="M112.193 29.619H107.396V28.0949C106.918 28.6664 106.254 29.1321 105.402 29.492C104.572 29.8307 103.679 30 102.724 30C101.415 30 100.221 29.5661 99.1415 28.6982C98.0825 27.8091 97.553 26.5602 97.553 24.9515C97.553 23.258 98.0721 22.0197 99.1104 21.2365C100.149 20.4321 101.353 20.0299 102.724 20.0299C104.904 20.0299 106.462 20.6226 107.396 21.808V19.9664C107.396 19.289 107.126 18.7492 106.586 18.3471C106.046 17.9449 105.299 17.7438 104.343 17.7438C102.744 17.7438 101.322 18.2835 100.076 19.3631L98.3628 16.2832C100.19 14.6956 102.464 13.9018 105.184 13.9018C106.14 13.9018 107.012 14.0076 107.801 14.2193C108.611 14.4098 109.348 14.7273 110.012 15.1719C110.698 15.6164 111.227 16.2514 111.601 17.077C111.996 17.9025 112.193 18.8868 112.193 20.0299V29.619ZM104.717 26.7931C106.005 26.7931 106.898 26.4226 107.396 25.6818V24.3164C106.877 23.5967 105.984 23.2369 104.717 23.2369C104.032 23.2369 103.461 23.3956 103.004 23.7131C102.547 24.0095 102.319 24.4434 102.319 25.015C102.319 25.5865 102.547 26.031 103.004 26.3486C103.461 26.6449 104.032 26.7931 104.717 26.7931Z" fill="white"/>
<path d="M131.28 29.619H126.483V20.7602C126.483 19.0668 125.663 18.22 124.023 18.22C122.86 18.22 121.884 18.7175 121.095 19.7124V29.619H116.298V14.2828H121.095V16.1562C122.361 14.6532 124.095 13.9018 126.296 13.9018C127.958 13.9018 129.204 14.3463 130.034 15.2354C130.865 16.1032 131.28 17.2781 131.28 18.7598V29.619Z" fill="white"/>
<path d="M141.147 30C139.798 30 138.479 29.7883 137.191 29.365C135.925 28.9416 134.897 28.3701 134.108 27.6504L136.101 24.2847C136.683 24.8139 137.493 25.2901 138.531 25.7135C139.59 26.1157 140.545 26.3168 141.397 26.3168C142.746 26.3168 143.421 25.9252 143.421 25.142C143.421 24.7821 143.12 24.5175 142.518 24.3482C141.916 24.1577 141.189 23.9989 140.338 23.8719C139.486 23.7237 138.624 23.512 137.752 23.2369C136.901 22.9617 136.174 22.4642 135.572 21.7445C134.97 21.0248 134.668 20.0934 134.668 18.9503C134.668 17.5321 135.239 16.3361 136.382 15.3624C137.524 14.3886 139.102 13.9018 141.116 13.9018C143.484 13.9018 145.581 14.5791 147.408 15.9339L145.571 19.1726C145.093 18.7069 144.449 18.3153 143.639 17.9978C142.829 17.6591 141.999 17.4897 141.147 17.4897C140.587 17.4897 140.13 17.5956 139.777 17.8073C139.424 18.0189 139.247 18.2835 139.247 18.6011C139.247 18.9186 139.548 19.162 140.151 19.3314C140.753 19.4795 141.48 19.6383 142.331 19.8076C143.182 19.9558 144.034 20.1781 144.885 20.4744C145.757 20.7708 146.495 21.3 147.097 22.062C147.699 22.8029 148 23.7555 148 24.9197C148 26.4226 147.388 27.6504 146.162 28.6029C144.937 29.5343 143.265 30 141.147 30Z" fill="white"/>
<path d="M21.6581 2.28827C21.2264 1.40098 19.6081 -0.219339 16.4929 0.0247077C16.2155 0.0464335 16.0421 0.292328 16.1555 0.516369C16.5927 1.3804 17.5068 2.48096 18.9736 2.9589C16.4075 3.30433 14.601 4.33941 14.601 7.0196C14.601 13.237 17.7606 19.3488 21.6581 19.3488C25.5557 19.3488 28.7153 13.237 28.7153 7.0196C28.7153 4.33937 26.9087 3.30431 24.3426 2.95888C25.8093 2.48094 26.7235 1.3804 27.1607 0.516369C27.274 0.292328 27.1006 0.0464335 26.8233 0.0247077C23.708 -0.219339 22.0897 1.40098 21.6581 2.28827Z" fill="#FF1A1A"/>
<path d="M41.8562 29.619C42.6625 29.619 43.3163 28.9526 43.3163 28.1306V10.6062C43.3163 9.32457 42.2971 8.28563 41.0398 8.28563C36.6823 8.28563 32.6105 10.4961 30.1785 14.1819L26.8917 19.1633C24.3811 22.9682 18.8867 22.9623 16.3841 19.1518L13.1279 14.194C10.7028 10.5018 6.631 8.28563 2.27203 8.28563C1.01722 8.28563 0 9.32256 0 10.6017V28.1306C0 28.9526 0.653709 29.619 1.4601 29.619H8.3819C9.1883 29.619 9.842 28.9526 9.842 28.1306V15.7379L18.199 27.8051C18.9867 28.9426 20.2674 29.619 21.6332 29.619C22.9949 29.619 24.2723 28.9466 25.0607 27.8149L33.4743 15.7379V28.1306C33.4743 28.9526 34.128 29.619 34.9344 29.619H41.8562Z" fill="#FF1A1A"/>
</svg>
