<?xml version="1.0" encoding="utf-8"?>
<svg xmlns="http://www.w3.org/2000/svg">
<symbol viewBox="0 0 12 8" id="icChev" xmlns="http://www.w3.org/2000/svg">
<path d="M1 1L6 6L11 1" stroke="#32D74B" stroke-width="2" stroke-linecap="round"/>
</symbol>
<symbol viewBox="0 0 30 30" id="infoIndic" xmlns="http://www.w3.org/2000/svg">
	<path d="M5 8H25" stroke="white" stroke-width="2"/>
	<path d="M5 15H22" stroke="white" stroke-width="2"/>
	<path d="M5 22H17" stroke="white" stroke-width="2"/>
</symbol>
<symbol viewBox="0 0 32 40" id="temperature" xmlns="http://www.w3.org/2000/svg">
<path d="M16 15.5V27M16 29.5V27M16 27C14.6193 27 13.5 28.1193 13.5 29.5C13.5 30.8807 14.6193 32 16 32C17.3807 32 18.5 30.8807 18.5 29.5C18.5 28.1193 17.3807 27 16 27ZM21 22.6254V6.99999C21 4.23857 18.7614 2 16 2C13.2386 2 11 4.23858 11 7V22.6254C8.90535 24.1735 7.5 26.6954 7.5 29.5C7.5 34.1944 11.3056 38 16 38C20.6944 38 24.5 34.1944 24.5 29.5C24.5 26.683 23.1104 24.172 21 22.6254Z" stroke="white" stroke-width="3" stroke-linecap="round"/>
</symbol>
<symbol viewBox="0 0 32 40" id="humidity" xmlns="http://www.w3.org/2000/svg">
<path d="M2.5 24.5C2.5 18.0477 10.6031 7.934 15.2762 2.78741C15.6663 2.35773 16.3337 2.35773 16.7238 2.78741C21.3969 7.934 29.5 18.0477 29.5 24.5M2.5 24.5C2.5 33 10 38 16 38C22 38 29.5 33 29.5 24.5M2.5 24.5L3.468 25.1914C4.96594 26.2614 6.9923 26.2062 8.42973 25.0562L8.5 25C9.96159 23.8307 12.0384 23.8307 13.5 25V25C14.9616 26.1693 17.0384 26.1693 18.5 25V25C19.9616 23.8307 22.0384 23.8307 23.5 25L23.5703 25.0562C25.0077 26.2062 27.0341 26.2614 28.532 25.1914L29.5 24.5" stroke="white" stroke-width="3"/>
</symbol>
<symbol viewBox="0 0 32 40" id="soil" xmlns="http://www.w3.org/2000/svg">
<path d="M2.5 24.5C2.5 18.0477 10.6031 7.934 15.2762 2.78741C15.6663 2.35773 16.3337 2.35773 16.7238 2.78741C21.3969 7.934 29.5 18.0477 29.5 24.5M2.5 24.5C2.5 33 10 38 16 38C22 38 29.5 33 29.5 24.5M2.5 24.5L3.468 25.1914C4.96594 26.2614 6.9923 26.2062 8.42973 25.0562L8.5 25C9.96159 23.8307 12.0384 23.8307 13.5 25V25C14.9616 26.1693 17.0384 26.1693 18.5 25V25C19.9616 23.8307 22.0384 23.8307 23.5 25L23.5703 25.0562C25.0077 26.2062 27.0341 26.2614 28.532 25.1914L29.5 24.5" stroke="white" stroke-width="3"/>
</symbol>
<symbol viewBox="0 0 32 40" id="illumination" xmlns="http://www.w3.org/2000/svg">
<path d="M11.4167 32.3318H12.9167V31.376L12.0504 30.9722L11.4167 32.3318ZM20.5833 32.3318L19.9496 30.9722L19.0833 31.376V32.3318H20.5833ZM17.5 2C17.5 1.17157 16.8284 0.5 16 0.5C15.1716 0.5 14.5 1.17157 14.5 2H17.5ZM14.5 5C14.5 5.82843 15.1716 6.5 16 6.5C16.8284 6.5 17.5 5.82843 17.5 5H14.5ZM30.0607 8.06066C30.6464 7.47487 30.6464 6.52513 30.0607 5.93934C29.4749 5.35355 28.5251 5.35355 27.9393 5.93934L30.0607 8.06066ZM25.818 8.06066C25.2322 8.64645 25.2322 9.59619 25.818 10.182C26.4038 10.7678 27.3536 10.7678 27.9393 10.182L25.818 8.06066ZM4.06066 5.93934C3.47487 5.35355 2.52513 5.35355 1.93934 5.93934C1.35355 6.52513 1.35355 7.47487 1.93934 8.06066L4.06066 5.93934ZM4.06066 10.182C4.64645 10.7678 5.59619 10.7678 6.18198 10.182C6.76777 9.59619 6.76777 8.64645 6.18198 8.06066L4.06066 10.182ZM6.5 22.1724C6.5 16.8084 10.7752 12.5 16 12.5V9.5C9.07453 9.5 3.5 15.1957 3.5 22.1724H6.5ZM16 12.5C21.2248 12.5 25.5 16.8084 25.5 22.1724H28.5C28.5 15.1957 22.9255 9.5 16 9.5V12.5ZM12.0504 30.9722C8.78137 29.4483 6.5 26.0867 6.5 22.1724H3.5C3.5 27.2761 6.47836 31.6847 10.7829 33.6913L12.0504 30.9722ZM9.91667 32.3318V35H12.9167V32.3318H9.91667ZM14.4167 39.5H17.5833V36.5H14.4167V39.5ZM25.5 22.1724C25.5 26.0867 23.2186 29.4483 19.9496 30.9722L21.2171 33.6913C25.5216 31.6847 28.5 27.2761 28.5 22.1724H25.5ZM22.0833 35V32.3318H19.0833V35H22.0833ZM17.5833 39.5C20.0686 39.5 22.0833 37.4853 22.0833 35H19.0833C19.0833 35.8284 18.4118 36.5 17.5833 36.5V39.5ZM9.91667 35C9.91667 37.4853 11.9314 39.5 14.4167 39.5V36.5C13.5882 36.5 12.9167 35.8284 12.9167 35H9.91667ZM14.5 2V5H17.5V2H14.5ZM27.9393 5.93934L25.818 8.06066L27.9393 10.182L30.0607 8.06066L27.9393 5.93934ZM1.93934 8.06066L4.06066 10.182L6.18198 8.06066L4.06066 5.93934L1.93934 8.06066Z" fill="white"/>
</symbol>
<symbol viewBox="0 0 32 40" id="pressure" xmlns="http://www.w3.org/2000/svg">
<path d="M29.5 20.5C29.5 27.9558 23.4558 34 16 34C8.54416 34 2.5 27.9558 2.5 20.5M29.5 20.5C29.5 13.0442 23.4558 7 16 7C8.54416 7 2.5 13.0442 2.5 20.5M29.5 20.5L23 20.5C22.7239 20.5 22.502 20.2758 22.4808 20.0005C22.4282 19.318 22.268 18.6469 22.0052 18.0126C21.6786 17.2239 21.1998 16.5074 20.5962 15.9038C19.9926 15.3002 19.2761 14.8214 18.4874 14.4948C17.6988 14.1681 16.8536 14 16 14C15.1464 14 14.3012 14.1681 13.5126 14.4948C12.7239 14.8214 12.0074 15.3002 11.4038 15.9038C10.8002 16.5074 10.3214 17.2239 9.99478 18.0126C9.73201 18.6469 9.57183 19.318 9.51922 20.0005C9.498 20.2758 9.27614 20.5 9 20.5L2.5 20.5" stroke="white" stroke-width="3" stroke-linecap="round"/>
</symbol>
<symbol viewBox="0 0 14 20" id="greenhouseIndic" xmlns="http://www.w3.org/2000/svg">
<rect x="1" y="1" width="12" height="18" rx="2" stroke="currentColor" stroke-width="2"/>
<path d="M1 9H13V15C13 17.2091 11.2091 19 9 19H5C2.79086 19 1 17.2091 1 15V9Z" fill="currentColor" stroke="currentColor" stroke-width="2"/>
</symbol>
<symbol viewBox="0 0 28 28" id="generalCondition" xmlns="http://www.w3.org/2000/svg">
<rect x="8" y="2" width="12" height="24" rx="4" stroke="white" stroke-width="2"/>
<path d="M8 11H20V22C20 24.2091 18.2091 26 16 26H12C9.79086 26 8 24.2091 8 22V11Z" fill="white" stroke="white" stroke-width="2"/>
</symbol>
<symbol viewBox="0 0 50 50" id="home" xmlns="http://www.w3.org/2000/svg">
<path fill-rule="evenodd" clip-rule="evenodd" d="M6.46809 24.8986H5.95416C3.77034 24.8986 2 23.1197 2 20.9253C2 19.5969 2.66075 18.3563 3.76079 17.6194L23.3359 4.50628C24.3436 3.83124 25.6564 3.83124 26.6641 4.50628L46.2392 17.6194C47.3393 18.3563 48 19.5969 48 20.9253C48 23.1197 46.2297 24.8986 44.0458 24.8986H43.5319V41.9807C43.5319 44.2005 41.7411 46 39.5319 46H30.1098C28.8976 46 27.9149 45.0126 27.9149 43.7945V31.9904C27.9149 30.3728 26.6099 29.0615 25 29.0615C23.3901 29.0615 22.0851 30.3728 22.0851 31.9904V43.7945C22.0851 45.0126 21.1024 46 19.8902 46H10.4681C8.25895 46 6.46809 44.2005 6.46809 41.9807V24.8986ZM5.95416 22.8889H7.06633C7.8405 22.8889 8.46809 23.5195 8.46809 24.2975V41.9807C8.46809 43.0906 9.36352 43.9903 10.4681 43.9903H19.8902C19.9979 43.9903 20.0851 43.9027 20.0851 43.7945V31.9904C20.0851 29.2629 22.2856 27.0518 25 27.0518C27.7144 27.0518 29.9149 29.2629 29.9149 31.9904V43.7945C29.9149 43.9027 30.0021 43.9903 30.1098 43.9903H39.5319C40.6365 43.9903 41.5319 43.0906 41.5319 41.9807V24.2975C41.5319 23.5195 42.1595 22.8889 42.9337 22.8889H44.0458C45.1251 22.8889 46 22.0098 46 20.9253C46 20.2688 45.6735 19.6557 45.1298 19.2915L25.5547 6.17842C25.2188 5.9534 24.7812 5.95341 24.4453 6.17842L4.87019 19.2915C4.32654 19.6557 4 20.2688 4 20.9253C4 22.0098 4.87491 22.8889 5.95416 22.8889Z" fill="white"/>
</symbol>
<symbol viewBox="0 0 44 44" id="analyt" xmlns="http://www.w3.org/2000/svg">
<path fill-rule="evenodd" clip-rule="evenodd" d="M16.2278 10.2144C16.8664 10.0332 17.4708 9.96338 18.0366 9.9774C17.9555 8.44386 17.9926 6.55717 18.3181 4.89812C18.5256 3.84005 18.8669 2.78527 19.4401 1.97196C20.0375 1.12429 20.9243 0.5 22.1246 0.5C23.3249 0.5 24.2117 1.12429 24.809 1.97196C25.3822 2.78527 25.7235 3.84005 25.931 4.89812C26.2564 6.55691 26.2936 8.44328 26.2126 9.97668C26.7056 9.98602 27.2264 10.0595 27.7722 10.2144C28.0821 10.3023 28.3408 10.5381 28.4478 10.8589C28.5526 11.173 28.5041 11.5781 28.2072 11.8748C28.2072 11.8748 28.1992 11.8829 28.184 11.9021C28.169 11.9209 28.1493 11.9477 28.1255 11.9837C28.0775 12.0561 28.0183 12.1577 27.9521 12.2929C27.8195 12.5634 27.6683 12.9488 27.5259 13.465C27.2414 14.4966 27 16.0217 27 18.1347C27 18.8598 26.7174 19.8662 25.8757 20.6336C25.1972 21.2523 24.245 21.6359 23 21.6679V32.4202C23.1385 32.3317 23.2682 32.2246 23.3856 32.0988L25.6488 29.6743C27.1916 28.0217 29.8053 27.9736 31.4084 29.5683L34.0858 32.2315C34.2125 32.3575 34.3519 32.4631 34.5 32.5482V26.84C33.255 26.8079 32.3028 26.4243 31.6243 25.8056C30.7826 25.0382 30.5 24.0319 30.5 23.3067C30.5 21.1937 30.2586 19.6687 29.9741 18.637C29.8317 18.1209 29.6805 17.7354 29.5479 17.4649C29.4817 17.3298 29.4225 17.2281 29.3745 17.1557C29.3507 17.1197 29.331 17.093 29.316 17.0741C29.3008 17.0549 29.2928 17.0469 29.2928 17.0469C28.9959 16.7501 28.9476 16.3445 29.0524 16.0304C29.1593 15.7096 29.4179 15.4743 29.7278 15.3864C30.3192 15.2186 30.8812 15.1463 31.4104 15.1477C31.3314 13.6197 31.3702 11.7469 31.6935 10.0988C31.9011 9.04072 32.2424 7.98594 32.8155 7.17263C33.4129 6.32496 34.2997 5.70067 35.5 5.70067C36.7003 5.70067 37.5871 6.32496 38.1845 7.17263C38.7576 7.98594 39.0989 9.04072 39.3065 10.0988C39.6298 11.7469 39.6686 13.6197 39.5896 15.1477C40.1188 15.1463 40.6808 15.2186 41.2722 15.3864C41.5821 15.4743 41.8413 15.7103 41.9481 16.0319C42.0525 16.3458 42.0038 16.7504 41.7072 17.0469C41.7072 17.0469 41.7046 17.0495 41.6995 17.0554C41.6957 17.0597 41.6905 17.0659 41.684 17.0741C41.669 17.093 41.6493 17.1197 41.6255 17.1557C41.5775 17.2281 41.5183 17.3298 41.452 17.4649C41.3195 17.7354 41.1683 18.1209 41.0259 18.637C40.7414 19.6687 40.5 21.1937 40.5 23.3067C40.5 24.0319 40.2174 25.0382 39.3757 25.8056C38.6972 26.4243 37.745 26.8079 36.5 26.84V32.5482C36.6481 32.4631 36.7875 32.3575 36.9142 32.2315L40.0858 29.0766C41.3457 27.8234 43.5 28.711 43.5 30.4834V40.5158C43.5 42.1639 42.1569 43.5 40.5 43.5H3.5C1.84315 43.5 0.5 42.1639 0.5 40.5158V30.4834C0.5 28.711 2.65428 27.8234 3.91421 29.0766L7.00576 32.1519C7.1552 32.3005 7.32219 32.4206 7.5 32.5123V26.84C6.255 26.8079 5.30284 26.4243 4.62428 25.8056C3.78264 25.0382 3.5 24.0319 3.5 23.3067C3.5 21.1937 3.25864 19.6686 2.9741 18.637C2.83172 18.1209 2.68053 17.7354 2.54795 17.4649C2.48173 17.3298 2.4225 17.2281 2.37454 17.1557C2.35072 17.1197 2.33099 17.093 2.31602 17.0741C2.30105 17.0552 2.29282 17.0469 2.29282 17.0469C1.99859 16.7528 1.94848 16.3515 2.04949 16.0391C2.15274 15.7197 2.40919 15.4768 2.72783 15.3864C3.31378 15.2201 3.8767 15.1482 4.41057 15.1506C4.3314 13.622 4.37 11.7479 4.69351 10.0988C4.90107 9.04072 5.24237 7.98594 5.81553 7.17263C6.4129 6.32496 7.29969 5.70067 8.5 5.70067C9.70031 5.70067 10.5871 6.32496 11.1845 7.17263C11.7576 7.98594 12.0989 9.04072 12.3065 10.0988C12.6298 11.7469 12.6685 13.6197 12.5896 15.1477C13.1188 15.1463 13.6808 15.2186 14.2722 15.3864C14.5821 15.4743 14.8411 15.7102 14.948 16.0314C15.0525 16.3454 15.004 16.7503 14.7072 17.0469C14.7072 17.0469 14.6992 17.0549 14.684 17.0741C14.669 17.093 14.6493 17.1197 14.6255 17.1557C14.5775 17.2281 14.5183 17.3298 14.4521 17.4649C14.3195 17.7354 14.1683 18.1209 14.0259 18.637C13.7414 19.6687 13.5 21.1937 13.5 23.3067C13.5 24.0319 13.2174 25.0382 12.3757 25.8056C11.6972 26.4243 10.745 26.8079 9.5 26.84V32.4202C9.63847 32.3317 9.76822 32.2246 9.88556 32.0988L12.1488 29.6743C13.6916 28.0217 16.3053 27.9736 17.9084 29.5683L20.5058 32.1519C20.6552 32.3005 20.8222 32.4206 21 32.5123V21.6679C19.755 21.6359 18.8028 21.2523 18.1243 20.6336C17.2826 19.8662 17 18.8598 17 18.1347C17 16.0217 16.7586 14.4966 16.4741 13.465C16.3317 12.9488 16.1805 12.5634 16.0479 12.2929C15.9817 12.1577 15.9225 12.0561 15.8745 11.9837C15.8507 11.9477 15.831 11.9209 15.816 11.9021C15.8011 11.8833 15.7928 11.8748 15.7928 11.8748C15.496 11.5783 15.4476 11.1729 15.5522 10.8589C15.6591 10.5377 15.9179 10.3023 16.2278 10.2144ZM22 11.654C21.5034 11.193 20.8518 10.7311 20.0683 10.4089C19.9537 8.90594 19.9578 6.927 20.281 5.27914C20.4652 4.34059 20.7364 3.59841 21.0778 3.11393C21.395 2.6638 21.7249 2.48944 22.1246 2.48944C22.5243 2.48944 22.8541 2.6638 23.1713 3.11393C23.5128 3.59841 23.784 4.34059 23.9681 5.27914C24.2843 6.89121 24.2951 8.82014 24.1881 10.3103C23.2896 10.6321 22.5499 11.1436 22 11.654ZM18.0877 11.9768C19.4566 12.054 20.4883 12.8627 21 13.4877V13.5C21.4757 14.2136 22.5243 14.2136 23 13.5V13.4877C23.5117 12.8627 24.5434 12.054 25.9123 11.9768C25.8 12.2663 25.694 12.5875 25.5972 12.9386C25.2576 14.1697 25 15.8754 25 18.1347C25 18.4043 24.8826 18.8403 24.5243 19.1671C24.4029 19.2778 24.2341 19.3936 24 19.4873V19.5C23.6667 19.6667 22.8 20 22 20C21.2 20 20.3333 19.6667 20 19.5V19.4873C19.7659 19.3936 19.5971 19.2778 19.4757 19.1671C19.1174 18.8403 19 18.4043 19 18.1347C19 15.8754 18.7424 14.1697 18.4028 12.9386C18.306 12.5875 18.2 12.2663 18.0877 11.9768ZM33.5918 24.6937C33.3093 24.595 33.1124 24.4637 32.9757 24.3391C32.6174 24.0123 32.5 23.5763 32.5 23.3067C32.5 21.0474 32.2424 19.3417 31.9028 18.1106C31.806 17.7595 31.7 17.4383 31.5877 17.1488C32.9495 17.2257 33.9775 18.0264 34.492 18.6499C34.9951 19.3237 36.0049 19.3237 36.508 18.6499C37.0225 18.0264 38.0505 17.2257 39.4123 17.1488C39.3 17.4383 39.194 17.7595 39.0972 18.1106C38.7576 19.3417 38.5 21.0474 38.5 23.3067C38.5 23.5763 38.3826 24.0123 38.0243 24.3391C37.8876 24.4637 37.6907 24.595 37.4082 24.6937C37.0258 24.8687 36.2348 25.1499 35.5 25.1499C34.7652 25.1499 33.9742 24.8687 33.5918 24.6937ZM37.5623 15.529C36.7204 15.8523 36.024 16.3397 35.5 16.8261C34.976 16.3397 34.2796 15.8523 33.4377 15.529C33.3294 14.0364 33.339 12.0984 33.6565 10.4798C33.8406 9.54126 34.1118 8.79908 34.4532 8.31459C34.7704 7.86447 35.1003 7.69011 35.5 7.69011C35.8997 7.69011 36.2296 7.86447 36.5468 8.31459C36.8882 8.79908 37.1594 9.54126 37.3435 10.4798C37.661 12.0984 37.6706 14.0364 37.5623 15.529ZM6.59181 24.6937C6.30929 24.595 6.11245 24.4637 5.97572 24.3391C5.61736 24.0123 5.5 23.5763 5.5 23.3067C5.5 21.0474 5.24238 19.3417 4.90282 18.1106C4.80559 17.7581 4.6992 17.4358 4.58637 17.1454C4.82385 17.1582 5.04917 17.1934 5.26215 17.2453C6.28921 17.4955 7.07336 18.1483 7.49085 18.6499C7.99435 19.3239 9.00453 19.3239 9.50804 18.6499C10.0225 18.0264 11.0505 17.2257 12.4123 17.1488C12.3 17.4383 12.194 17.7595 12.0972 18.1106C11.7576 19.3417 11.5 21.0474 11.5 23.3067C11.5 23.5763 11.3826 24.0123 11.0243 24.3391C10.8876 24.4637 10.6907 24.595 10.4082 24.6937C10.0258 24.8687 9.23479 25.1499 8.5 25.1499C7.76521 25.1499 6.97417 24.8687 6.59181 24.6937ZM10.5623 15.529C9.72133 15.8519 9.02556 16.3385 8.50181 16.8244C7.97621 16.3354 7.28077 15.8518 6.43786 15.5308C6.32941 14.038 6.33885 12.099 6.65649 10.4798C6.8406 9.54126 7.11179 8.79908 7.45322 8.31459C7.77044 7.86447 8.10031 7.69011 8.5 7.69011C8.89969 7.69011 9.22956 7.86447 9.54678 8.31459C9.88821 8.79908 10.1594 9.54126 10.3435 10.4798C10.661 12.0984 10.6706 14.0364 10.5623 15.529ZM13.6144 31.028C14.3858 30.2017 15.6927 30.1777 16.4942 30.975L19.0916 33.5586C20.6947 35.1533 23.3084 35.1052 24.8512 33.4526L27.1144 31.028C27.8858 30.2017 29.1927 30.1777 29.9942 30.975L32.6716 33.6382C34.2337 35.1921 36.7663 35.1921 38.3284 33.6382L41.5 30.4834V40.5158C41.5 41.0652 41.0523 41.5106 40.5 41.5106H3.5C2.94772 41.5106 2.5 41.0652 2.5 40.5158V30.4834L5.59155 33.5586C7.1947 35.1533 9.80844 35.1052 11.3512 33.4526L13.6144 31.028Z" fill="white"/>
</symbol>





</svg>